<?xml version="1.0" encoding="UTF-8" standalone="no"?>
<svg
   xmlns:dc="http://purl.org/dc/elements/1.1/"
   xmlns:cc="http://creativecommons.org/ns#"
   xmlns:rdf="http://www.w3.org/1999/02/22-rdf-syntax-ns#"
   xmlns:svg="http://www.w3.org/2000/svg"
   xmlns="http://www.w3.org/2000/svg"
   id="svg8"
   version="1.1"
   viewBox="0 0 103.83353 104.10077"
   height="104.10077mm"
   width="103.83353mm">
  <defs
     id="defs2" />
  <metadata
     id="metadata5">
    <rdf:RDF>
      <cc:Work
         rdf:about="">
        <dc:format>image/svg+xml</dc:format>
        <dc:type
           rdf:resource="http://purl.org/dc/dcmitype/StillImage" />
        <dc:title></dc:title>
      </cc:Work>
    </rdf:RDF>
  </metadata>
  <g
     transform="translate(-62.003996,-96.014155)"
     id="layer1">
    <text
       x="-119.3884"
       y="111.10534"
       id="text3786"
       xml:space="preserve"
       style="font-style:oblique;font-variant:normal;font-weight:normal;font-stretch:normal;font-size:38.09999847px;line-height:0%;font-family:Impact;-inkscape-font-specification:'Impact Oblique';letter-spacing:0px;word-spacing:0px;fill:#000000;fill-opacity:1;stroke:none;stroke-width:0.26458332"><tspan
         style="stroke-width:0.26458332"
         x="-119.3884"
         y="111.10534"
         id="tspan3788" /></text>
    <text
       x="-137.33481"
       y="89.409531"
       id="text3790"
       xml:space="preserve"
       style="font-style:normal;font-variant:normal;font-weight:normal;font-stretch:normal;font-size:10.58333302px;line-height:0%;font-family:Impact;-inkscape-font-specification:Impact;letter-spacing:0px;word-spacing:0px;fill:#000000;fill-opacity:1;stroke:none;stroke-width:0.26458332"><tspan
         style="stroke-width:0.26458332"
         x="-137.33481"
         y="89.409531"
         id="tspan3792" /></text>
    <path
       d="m 158.87743,147.39242 a 45.30219,45.435829 0 1 1 -90.604381,0 45.302191,45.435826 0 1 1 90.604381,0 z"
       id="path2987"
       style="fill:#00b5ff;fill-opacity:1;stroke:#2255ff;stroke-width:7.9375;stroke-miterlimit:4;stroke-dasharray:none;stroke-opacity:1" />
    <path
       d="m 111.84566,122.3026 a 9.4880683,9.0871642 0 1 1 -18.976131,0 9.4880683,9.0871642 0 1 1 18.976131,0 z"
       id="path3776"
       style="fill:#ffe100;fill-opacity:1;stroke:#ffe100;stroke-width:5.29166651;stroke-miterlimit:4;stroke-dasharray:none;stroke-opacity:1" />
    <path
       d="m 68.784469,144.16495 c 13.45437,-7.35205 27.45637,-18.3937 41.521371,-22.58508 7.11143,-2.60505 18.90107,-2.21371 22.90835,-0.41879 3.60886,1.01326 6.25398,2.91105 9.41011,6.30837 1.14304,1.34266 4.941,5.75327 1.59616,4.7395 -8.60453,-0.70674 -12.16284,-1.25999 -20.5999,1.81998 -2.81364,1.70897 -7.27606,4.24255 -6.70176,8.93289 0.79271,5.02105 5.29481,6.56099 8.66258,7.8647 8.08759,2.38334 16.4417,0.73919 24.65165,1.09233 2.17291,-0.0196 4.34582,-0.0392 6.51873,-0.0588"
       id="path3768"
       style="fill:#00b5ff;fill-opacity:1;stroke:#2255ff;stroke-width:7.9375;stroke-linecap:butt;stroke-linejoin:miter;stroke-miterlimit:4;stroke-dasharray:none;stroke-opacity:1" />
    <path
       id="path3897"
       d="m 133.28297,148.02468 c -1.85842,-0.16097 -3.90381,-0.43651 -4.93781,-0.6652 -1.27791,-0.28264 -4.00754,-1.32666 -5.0202,-1.92012 -2.18152,-1.27846 -2.96918,-3.27576 -1.85497,-4.70378 0.64778,-0.83022 1.10806,-1.21545 2.70196,-2.26139 2.70598,-1.77571 8.29491,-2.98757 12.67272,-2.74785 2.79547,0.15308 5.90858,0.39848 7.40527,0.58375 1.25322,0.15513 1.4068,0.13938 2.53068,-0.25961 1.1267,-0.39999 1.24144,-0.48724 1.967,-1.49582 0.7698,-1.07009 0.77051,-1.07231 0.78817,-2.45472 0.0163,-1.27348 -0.0287,-1.48034 -0.56409,-2.59787 -1.40613,-2.93483 -5.69283,-7.53631 -8.99217,-9.65248 -3.24835,-2.08348 -7.47937,-3.43432 -12.32877,-3.93623 -3.60148,-0.37274 -10.00143,-0.12231 -13.47145,0.52714 l -1.05232,0.19695 -0.75596,-1.07126 c -1.68735,-2.3911 -4.38805,-4.1347 -7.38966,-4.77086 -0.59533,-0.12617 -1.8175,-0.23067 -2.71595,-0.23221 -5.601921,-0.01 -10.496831,3.75802 -11.788421,9.07367 -0.33209,1.36676 -0.33199,3.89154 1.6e-4,5.35213 0.14213,0.62489 0.2332,1.16118 0.20237,1.19176 -0.0308,0.0306 -0.96671,0.59555 -2.07974,1.2555 -1.11303,0.65995 -4.71925,2.87656 -8.01382,4.92581 -7.0073,4.35861 -6.71861,4.19204 -6.71861,3.8766 0,-0.63227 1.61905,-4.83595 2.75047,-7.14126 4.43447,-9.03544 11.83979,-16.02497 21.07979,-19.89618 4.883091,-2.04583 9.247861,-2.9678 14.781791,-3.12233 11.74217,-0.3279 22.52816,4.08883 30.7615,12.59646 6.97862,7.21112 11.06485,16.72187 11.52041,26.81396 l 0.10414,2.30701 -2.00842,0.009 c -2.75754,0.0127 -8.70873,0.0951 -14.23152,0.1971 -2.53771,0.0469 -4.94186,0.0568 -5.34255,0.0221 v 1e-5 z"
       style="fill:#ffffff;fill-opacity:1;stroke:#ffe100;stroke-width:0;stroke-miterlimit:4;stroke-dasharray:none;stroke-opacity:1" />
  </g>
</svg>
